<svg xmlns="http://www.w3.org/2000/svg" viewBox="0 0 70 32"><path fill="currentColor" fill-rule="evenodd" d="M24.956 9.892h-2.052V1.75h-2.976V0h8v1.75h-2.972v8.142Zm5.758-4.437v4.437h-2.055V0h2.055v3.75h3.835V0h2.057v9.892h-2.057V5.455h-3.835Zm8.683-3.705h5.167V0h-7.082v9.893h7.08V8.145h-5.165V5.58h4.554V3.83h-4.554V1.75Zm-33.3 9.157h1.921v9.892H5.962L1.95 13.746h-.03v7.053H0v-9.892h2.164l3.901 6.887h.033v-6.887Zm10.252 4.946c0 2.769-1.56 3.458-2.671 3.458-1.107 0-2.672-.69-2.672-3.458 0-2.768 1.565-3.457 2.672-3.457 1.111 0 2.67.69 2.67 3.457Zm2.057 0c0-4.642-3.424-5.208-4.728-5.208-1.3 0-4.73.566-4.73 5.208 0 4.639 3.43 5.205 4.73 5.205 1.304 0 4.728-.566 4.728-5.205Zm14.5 4.946h-2.054v-8.144h-2.977v-1.748h7.999v1.748h-2.968v8.144Zm5.764-.002v-4.433h3.834v4.433h2.059v-9.89h-2.059v3.745H38.67v-3.746h-2.054v9.891h2.053Zm-14.98-5.534c1.07 0 1.59-.374 1.59-1.352 0-.522-.237-1.293-1.439-1.293h-2.564v2.645h2.412Zm-4.429-4.356h4.977c2.616 0 3.095 1.943 3.095 2.8 0 1.087-.552 2.025-1.523 2.356.81.356 1.248.659 1.248 2.505 0 1.445 0 1.806.438 1.97v.261h-2.277c-.135-.465-.216-.978-.216-1.996 0-1.35-.08-1.872-1.606-1.872h-2.12v3.868h-2.016v-9.892Zm-6.073 20.796h2.053v-4.155h4.327v-1.753h-4.327v-2.232h4.945v-1.75h-6.998v9.89Zm9.158-3.745h2.506l-1.22-3.91h-.023l-1.263 3.91Zm-1.235 3.745h-2.166l3.508-9.89h2.371l3.466 9.89h-2.235l-.63-2.039h-3.629l-.685 2.04Zm11.315-8.325c1.695 0 2.014 1.116 2.175 1.706h2.054c-.11-1.455-1.3-3.497-4.24-3.497-2.543 0-4.527 1.765-4.527 5.222 0 3.42 1.877 5.191 4.495 5.191 2.469 0 3.862-1.5 4.272-3.649h-2.054c-.243 1.212-1.04 1.861-2.175 1.861-1.743 0-2.444-1.601-2.444-3.377 0-2.796 1.456-3.457 2.444-3.457Zm12.138.186h-5.167v2.078h4.554v1.75h-4.554v2.565h5.166v1.746h-7.081v-9.89h7.082v1.75ZM46.53 0c12.605 0 22.804 10.254 22.804 22.924v8.78h-9.439v-8.542c-.087-7.35-6.031-13.27-13.365-13.27h-.451V0h.451Zm0 21.813h-.45v9.89h4.719v-5.6c0-2.371-1.91-4.29-4.269-4.29Zm.012-10.906c6.806.01 12.317 5.535 12.345 12.372v8.424h-7.08v-5.6c0-2.932-2.361-5.304-5.277-5.304h-.451v-9.892h.463Z" clip-rule="evenodd"/></svg>